<?xml version="1.0" encoding="utf-8"?>
<!-- Generator: Adobe Illustrator 16.0.0, SVG Export Plug-In . SVG Version: 6.00 Build 0)  -->
<!DOCTYPE svg PUBLIC "-//W3C//DTD SVG 1.1//EN" "http://www.w3.org/Graphics/SVG/1.1/DTD/svg11.dtd">
<svg version="1.1" xmlns="http://www.w3.org/2000/svg" xmlns:xlink="http://www.w3.org/1999/xlink" x="0px" y="0px" width="110px"
	 height="93.333px" viewBox="0 0 110 93.333" enable-background="new 0 0 110 93.333" xml:space="preserve">
<g id="Layer_2">
	<rect x="0.376" y="0.326" fill="#FFFFFF" width="110" height="93.333"/>
</g>
<g id="Layer_1">
	<g>
		<g>
			<path d="M10.333,51.904c-0.112,0.112,0,0.671-0.019,0.819c-0.037,0.244-0.037,0.541,0,0.783c0.038,0.522-0.019,1.008-0.056,1.492
				c-0.038,0.467,0.037,0.914,0.019,1.344c0,0.129,0.093,0.465-0.093,0.484c-0.075,0-0.28,0.057-0.354,0.037
				c-0.093-0.02-0.149-0.02-0.167-0.02c-0.205-0.055-0.429,0.205-0.466-0.168c-0.056-0.578,0-1.155-0.019-1.752
				c-0.038-0.336,0.037-0.598,0.019-0.783c-0.037-0.205,0.056-0.485,0.019-0.653c-0.093-0.466,0.037-1.007,0.019-1.474
				C9.198,51.25,9.31,50.43,9.272,49.667C9.253,49.422,9.31,49.18,9.31,48.92c-0.019-0.262-0.019-0.541-0.037-0.803
				c0-0.429,0.037-0.876,0.056-1.323c0.019-0.317,0-0.561,0-0.858c0.019-0.41,0.056-0.857-0.037-1.268
				c0.056,0.056,0.037-0.02,0.205,0c0.037,0,0.056-0.02,0.187-0.02c0.019,0,0.112,0.02,0.112,0.038c0.075,0.02,0.242-0.019,0.317,0
				c0.392,0.056,0.541-0.019,0.97,0.056c0.112,0.02,0.597-0.019,0.708-0.036c0.187,0,0.354,0.056,0.578,0.036
				c0.224-0.019,0.522,0.02,0.708,0.037c0.149,0,0.28,0.02,0.429,0c0.261,0,0.392,0.075,0.653,0c0.373-0.019,0.727-0.073,1.044,0
				c0.149,0.02,0.298-0.056,0.448-0.056c0.112,0,0.149,0.093,0.242,0.093c0.038,0,0.038,0.037,0.075,0.037
				c0.242,0,0.503,0.149,0.653,0.243c0.149,0.093,0.279,0.242,0.391,0.373c0.056,0.056,0.056,0.206,0.112,0.224
				c0.13,0.057,0.242,0.335,0.279,0.466c0.038,0.168,0.168,0.28,0.168,0.448c0.019,0.057,0.112,0.41,0.093,0.41
				c0.019,0.148,0.187,0.707,0.112,0.857c0,0.02,0.038,0.541,0.038,0.541c-0.038,0.41,0,0.672-0.149,1.25
				c-0.037,0.112-0.13,0.299-0.13,0.41c0,0.112-0.131,0.205-0.168,0.317c-0.037,0.13-0.112,0.168-0.168,0.28
				c-0.242,0.392-0.447,0.541-0.82,0.819c-0.149,0.112-0.503,0.242-0.69,0.242c-0.037,0-0.392,0.075-0.392,0.149
				c-0.075-0.02-0.056-0.094-0.112,0.019c-0.019-0.019-0.037-0.037-0.037-0.056c0,0.093-0.224,0.056-0.336,0.093
				c-0.13,0.038-0.242,0.093-0.392,0.019c-0.093-0.037-0.335-0.056-0.429-0.019c-0.112,0.019-0.168-0.019-0.28,0
				c-0.261,0.038-0.373-0.074-0.615-0.074c-0.112,0.019-0.187-0.019-0.317-0.038c-0.13,0.057-0.13,0.057-0.28,0.02
				c-0.056-0.02-0.317,0.019-0.392,0.019c-0.242,0-0.503-0.075-0.727-0.075c-0.205,0-0.298,0.037-0.503,0.094
				C10.706,51.867,10.463,51.997,10.333,51.904z M10.371,50.655c0.112,0.02,0.261,0,0.354,0c0.168,0.037,0.653-0.148,0.746-0.038
				c0.056,0.056,0.317-0.075,0.373,0.019c0.019,0.02,0.429-0.019,0.522,0c0.074,0.039,0.317-0.019,0.41,0.039
				c0.075,0.056,0.522,0.037,0.522,0.056c0.168-0.093,1.175,0.038,1.193,0.038c0.149,0,0.112-0.075,0.205,0.019
				c0.038,0.037,0.187-0.075,0.243-0.075c0.093,0,0.13-0.019,0.205,0c0.149,0.057,0.466-0.168,0.578-0.261
				c0.056-0.056,0.167-0.187,0.242-0.224c0.13,0,0.224-0.262,0.298-0.373c0.093-0.131,0.13-0.28,0.205-0.411
				c0.056-0.093,0.019-0.261,0.056-0.354c0.056-0.261,0.056-0.521,0.074-0.783c0.019-0.074-0.019-0.334,0.019-0.428
				c0.019-0.076-0.019-0.486-0.038-0.617c-0.019-0.166-0.224-0.596-0.261-0.707c-0.038-0.13-0.131-0.225-0.243-0.279
				c-0.056-0.038-0.13-0.112-0.168-0.168c-0.037,0-0.186-0.056-0.224-0.075c-0.317-0.187-0.783-0.13-1.156-0.111
				c-0.224,0-0.616,0.037-0.821-0.075c-0.074-0.037-0.242-0.037-0.354-0.02c-0.149,0.037-0.28,0.02-0.429,0.02
				c-0.205,0.019-0.41,0.075-0.615-0.02c-0.093-0.037-0.317,0.02-0.373,0.02c-0.28,0.019-0.485-0.075-0.746,0
				C11,45.9,10.573,45.751,10.554,45.937c0,0.188,0,0.373-0.019,0.561c0,0.111-0.056,0.224-0.037,0.353
				c0.056,0.281-0.075,0.635-0.037,0.951c0.019,0.094-0.038,0.69-0.038,0.69s0,0.466,0,0.503c-0.037,0.168,0,0.336-0.019,0.521
				c-0.019,0.15,0.037,0.486-0.037,0.615C10.371,50.299,10.408,50.487,10.371,50.655z"/>
			<path d="M25.141,55.82c0.187,0.037,0.373,0.074,0.56,0.074c0.447-0.019,0.895-0.037,1.342,0.038c0.28,0.056,0.522,0,0.783,0
				c0.093,0.019,0.205-0.02,0.261,0c0.112,0.037,0.261,0.037,0.392,0c0.093-0.038,0.13,0,0.261,0c0.205,0,0.167,0.502,0.205,0.634
				c0.037,0.075-0.038,0.298-0.149,0.241c-0.056-0.036-0.13-0.018-0.205-0.018c-0.093,0-0.149-0.02-0.261-0.037
				c-0.205-0.039-0.373,0.019-0.559,0.019c-0.224,0-0.429,0.056-0.597-0.019c-0.317-0.039-0.503,0.019-0.802,0.019
				c-0.205,0-0.354,0.019-0.597,0.019c-0.224,0-0.429-0.074-0.634-0.037c-0.224,0.057-0.392-0.037-0.597,0
				c-0.187,0.037-0.354,0.057-0.522,0.057c-0.019-0.02-0.298-0.037-0.335-0.037c-0.205,0-0.392-0.075-0.616-0.037
				c-0.205,0.037-0.317,0.02-0.503,0.057c-0.167,0.037-0.354-0.02-0.541-0.02c-0.205,0-0.373,0.074-0.578,0.037
				c-0.13-0.02-0.224,0.037-0.317,0.037c-0.019,0-0.056-0.019-0.13,0c-0.038,0.057-0.131,0-0.131-0.037
				c-0.037-0.057,0.075-0.242,0.075-0.317c0-0.167,0.019-0.335,0-0.503c0-0.316-0.019-0.652-0.019-0.988c0-0.41-0.019-0.839,0-1.229
				c0.037-0.205-0.019-0.653-0.019-0.839c0-0.225,0.019-0.447,0.019-0.689c0-0.447,0-0.97,0.075-1.417
				c0.056-0.409-0.019-0.914-0.019-1.323c0-0.504,0.056-1.008,0.056-1.511c0.019-0.429,0.075-0.876,0.056-1.286
				c0-0.393,0.056-0.84-0.019-1.193c-0.019-0.131-0.019-0.393,0-0.503c0-0.057,0-0.261-0.037-0.298
				c-0.056-0.094,0.205-0.112,0.261-0.094c0.167,0.075,0.373-0.037,0.522-0.019c0.13,0.019,0.41-0.205,0.392,0.112
				c-0.019,0.241,0,0.466-0.019,0.708c-0.056,0.466-0.093,0.987-0.075,1.454c0.019,0.484,0.019,0.988-0.019,1.437
				c-0.019,0.28,0,0.522-0.038,0.765c0,0.225-0.056,0.447-0.037,0.689c0.019,0.392,0.019,0.765,0,1.175
				c0,0.205,0.019,0.429,0.019,0.653c0,0.093-0.019,0.297-0.037,0.41c-0.019,0.092,0.019,0.373,0.019,0.502c0,0.02,0,0.373,0,0.41
				c0.019,0.317-0.037,0.803-0.037,1.119c0,0.447,0,1.062,0.037,1.51c0.019,0.188,0.093,0.131,0.522,0.131
				c0.224,0,0.392,0.037,0.634,0.056c0.466,0.019,0.914-0.056,1.38,0.056C24.768,55.838,24.954,55.801,25.141,55.82z"/>
			<path d="M40.75,56.771c-0.019,0.28-0.131,0.224-0.354,0.243c-0.093,0.037-0.354,0.037-0.429-0.075
				c-0.13,0.075-0.336,0-0.448-0.038c-0.037,0-0.149,0.038-0.167-0.057c-0.056-0.074,0.074-0.074,0.074-0.148
				c-0.056-0.225-0.186-0.41-0.261-0.634c-0.019-0.112-0.168-0.317-0.168-0.373c-0.019-0.168-0.149-0.335-0.224-0.485
				c-0.149-0.298-0.205-0.671-0.317-0.951c-0.093-0.224-0.131-0.429-0.224-0.634c-0.074-0.149-0.149-0.354-0.242-0.446
				c-0.224-0.244-0.82-0.149-1.137-0.149c-0.261,0-0.541,0.019-0.858,0.019c-0.41,0-0.839,0-1.268,0
				c-0.149,0-0.242,0.02-0.392-0.056c-0.019-0.019-0.112,0.056-0.149,0.037c-0.131-0.056-0.336,0.056-0.485,0.019
				c-0.112-0.037-0.298,0.02-0.448,0.02c-0.167-0.02-0.41-0.075-0.522,0.02c-0.149,0.129-0.056,0.241-0.13,0.391
				c-0.056,0.094-0.093,0.188-0.168,0.281c-0.056,0.073-0.13,0.297-0.149,0.392c-0.112,0.354-0.261,0.728-0.373,1.081
				c-0.075,0.187-0.112,0.392-0.149,0.56c-0.037,0.13-0.019,0.41-0.149,0.503c-0.037,0.075-0.037,0.225-0.056,0.299
				c-0.019,0.092-0.074,0.168-0.074,0.279c-0.075,0-0.149,0.075-0.187-0.056c-0.056,0.038-0.41,0-0.56,0.038
				c-0.075,0.019-0.168-0.02-0.242,0c-0.075-0.094-0.038-0.336,0-0.41c0.056-0.131,0.037-0.393,0.149-0.503
				c-0.019-0.261,0.13-0.448,0.168-0.671c0.037-0.205,0.112-0.43,0.168-0.635c0.224-0.709,0.578-1.343,0.802-2.033
				c0.205-0.652,0.503-1.268,0.746-1.92c0.075-0.148,0.541-1.455,0.597-1.51c0.112-0.111,0.503-1.287,0.466-1.306
				c0.149-0.261,0.261-0.597,0.335-0.856c0.056-0.225,0.205-0.43,0.224-0.671c0.243-0.467,0.485-0.988,0.634-1.474
				c0.093-0.075,0.056-0.242,0.13-0.354c0.075-0.02,0.224,0.056,0.298,0c0.112,0.037,0.224,0.037,0.335,0.019
				c-0.093,0.02,0.131-0.037,0.168-0.056c0,0.038-0.037,0.148,0.075,0.075c0.149-0.094,0.149-0.02,0.187,0.148
				c0.019,0.205,0.149,0.393,0.224,0.56c0.019,0.056,0.168,0.409,0.168,0.484c0.019,0.205,0.149,0.485,0.187,0.69
				c0.019,0.13,0.205,0.41,0.261,0.689c0,0.037,0.261,0.652,0.317,0.746c0.075,0.168,0.149,0.336,0.205,0.541
				c0.019,0.112,0.093,0.242,0.149,0.373c0.037,0.112,0.242,0.597,0.242,0.728c0.075,0.056,0.056,0.187,0.112,0.26
				c0.075,0.168,0.149,0.336,0.224,0.504c0.242,0.597,0.578,1.193,0.746,1.789c0.056,0.242,0.224,0.41,0.298,0.615
				c0.131,0.336,0.28,0.652,0.392,0.988c0.038,0.149,0.298,0.689,0.317,0.857c0.149,0.354,0.336,0.484,0.392,0.857
				c0.019,0.168,0.112,0.373,0.187,0.541c-0.019,0.094,0.112,0.373,0.187,0.411C40.544,56.471,40.675,56.659,40.75,56.771z
				 M37.431,51.904c0,0.075,0.131,0.056,0.168,0.037c-0.056-0.187-0.149-0.354-0.168-0.541c0.019-0.056-0.093-0.205-0.074-0.317
				c-0.112-0.261-0.149-0.578-0.298-0.82c-0.093-0.131-0.093-0.242-0.131-0.373c-0.074-0.129-0.149-0.336-0.205-0.465
				c-0.075-0.336-0.205-0.615-0.335-0.896c-0.112-0.28-0.205-0.56-0.317-0.819c-0.131-0.242-0.149-0.635-0.354-0.82
				c-0.13-0.112-0.13-0.578-0.317-0.597c-0.112,0.019-0.112,0.298-0.205,0.373c0,0.037-0.112,0.335-0.187,0.372
				c0.037,0.02-0.168,0.521-0.205,0.561c0,0.187-0.187,0.521-0.28,0.671c-0.075,0.13-0.075,0.372-0.168,0.522
				c-0.13,0.166-0.205,0.446-0.298,0.633c-0.112,0.205-0.224,0.449-0.261,0.672c-0.038,0.205-0.224,0.541-0.28,0.765
				c0.019,0.056-0.093,0.187-0.112,0.261c-0.037,0.149-0.13,0.205-0.168,0.354c-0.037,0.131-0.168,0.242-0.093,0.393
				c0.019,0,0.317,0.037,0.317,0.037c0.019,0.02,0.243,0.02,0.261,0c0.075,0.037,0.112,0.037,0.168,0.02
				c0.354-0.074,0.914,0.037,1.287,0.037c0.187,0.02,0.354,0,0.541,0c0.187-0.019,0.373,0.037,0.541,0.02
				c0.056,0,0.167-0.038,0.205-0.02c0.186,0.037,0.392,0.02,0.559-0.019c0.112-0.019,0.224,0,0.354,0.019
				C37.375,51.979,37.413,51.922,37.431,51.904z"/>
			<path d="M43.811,56.92c-0.037,0.092-0.167-0.113-0.186-0.131c-0.019-0.094,0.056-0.094-0.038-0.281
				c-0.075-0.129,0.019-0.354,0.019-0.502c0.019-0.242,0-0.43,0.019-0.672c0.019-0.261-0.038-0.521-0.038-0.783
				c0.019-0.26,0.075-0.502,0.075-0.765c0-0.354-0.037-0.671-0.019-1.024c0.019-0.225,0.019-0.467,0.019-0.69
				c0-0.112,0.037-0.653,0.037-0.746c0.019-0.651,0.056-1.024,0.038-1.528c-0.019-0.43-0.038-0.84,0.019-1.25
				c0.093-0.578,0.056-1.213,0.037-1.81c0-0.316,0.056-0.614,0.038-0.951c-0.019-0.168-0.019-0.224,0.019-0.372
				c0.019-0.169-0.075-0.354-0.019-0.541c0-0.074,0.019-0.112,0.037-0.205c0-0.037,0.093-0.149,0.13-0.057
				c0.075-0.038,0.392-0.056,0.56-0.019c0.112,0.019,0.28,0.019,0.373,0c0.093,0.112,0.093,0.242,0.187,0.354
				c0.242,0.28,0.429,0.671,0.634,0.971c0.429,0.634,0.82,1.286,1.268,1.919c0.392,0.541,0.708,1.101,1.137,1.604
				c0.205,0.261,0.466,0.541,0.671,0.802c0.056,0.094,0.335,0.393,0.429,0.467c0.149,0.129,0.205,0.297,0.373,0.502
				c0.075,0.094,0.242,0.188,0.28,0.299c0.019,0.056,0.149,0.224,0.205,0.261c0.112,0.112,0.242,0.261,0.335,0.429
				c0.112,0.057,0.243,0.28,0.317,0.393c0.075,0.074,0.205,0.261,0.261,0.354c0.075,0.111,0.205,0.205,0.261,0.354
				c0.056,0.131,0.224,0.205,0.317,0.317c0.075,0.093,0.167,0.224,0.187,0.261c0.019,0.112,0.187,0.299,0.261,0.393
				c0.131,0.13,0.243,0.279,0.336,0.429c0.056,0.075,0.167,0.28,0.261,0.317c0.112-0.112,0-0.279,0.019-0.43
				c0.019-0.074-0.075-0.615-0.019-0.707c0.038-0.057-0.019-0.281-0.019-0.354c0-0.13,0-0.261,0-0.392c0-0.242,0-0.467-0.037-0.709
				c-0.056-0.278,0.056-0.578,0-0.856c-0.038-0.243-0.075-0.597-0.056-0.802c0.019-0.112,0.019-0.561,0-0.653
				c-0.019-0.242,0-0.466,0-0.708c0.019-0.783,0-1.585,0.019-2.368c0.019-0.204-0.037-0.429-0.019-0.614
				c0.019-0.262,0.038-0.541,0.038-0.783c0-0.188,0-0.373,0-0.559c-0.019-0.057,0.074-0.337,0.112-0.393
				c0.037-0.075-0.075-0.187,0.093-0.187c0.13,0,0.857-0.075,0.82,0.298c-0.038,0.074,0.019,1.51-0.038,1.528
				c-0.037,0.112,0,0.746-0.019,0.858c-0.093,0.373,0,0.708-0.019,1.082c0,0.41-0.075,0.671-0.056,1.193
				c0.019,0.297-0.056,0.614-0.038,0.932c0.019,0.205,0,0.373,0,0.876c0,0.13,0,0.503,0,0.614c-0.019,0.354,0.093,0.709,0.038,1.045
				c-0.075,0.373,0.019,0.689,0.037,1.082c0,0.297-0.056,0.597,0.019,0.895c0.075,0.336,0,0.783,0.019,1.139
				c0.019,0.148,0.019,0.279,0.019,0.409c0,0.093-0.056,0.187-0.019,0.261c0.038,0.039-0.056,0.149-0.074,0.168
				c-0.075,0.039-0.131-0.019-0.224,0.02c-0.093,0.038-0.485,0.038-0.541-0.057c0-0.019-0.13-0.187-0.224-0.297
				c-0.056-0.076-0.41-0.598-0.466-0.69c-0.112-0.149-0.261-0.336-0.335-0.485c-0.131-0.261-0.317-0.429-0.541-0.652
				c-0.112-0.149-0.187-0.299-0.317-0.447c-0.13-0.168-0.541-0.561-0.634-0.766c-0.168-0.373-0.597-0.67-0.839-1.024
				c-0.112-0.149-0.242-0.298-0.354-0.466c-0.131-0.205-0.298-0.354-0.411-0.541c-0.112-0.205-0.392-0.561-0.578-0.746
				c-0.112-0.112-0.578-0.84-0.597-0.84c0.019,0-0.429-0.652-0.541-0.727c-0.242-0.242-0.503-0.689-0.652-0.988
				c-0.056-0.111-0.392-0.428-0.429-0.56c-0.074-0.241-0.261-0.354-0.392-0.597c-0.093-0.187-0.242-0.392-0.373-0.578
				c-0.075-0.093-0.317-0.298-0.336-0.429c-0.056,0.019-0.056,0.316-0.056,0.392c0,0.225,0,0.484,0,0.764
				c0.037,0.598-0.056,1.25-0.093,1.883c-0.093,0.971-0.019,1.939-0.056,2.929c-0.019,0.541,0.075,1.118,0,1.659
				c-0.019,0.074-0.019,0.373,0.019,0.447c0,0.262,0.056,0.522,0.019,0.783c-0.019,0.262,0.019,0.521-0.019,0.783
				c-0.019,0.316-0.056,0.652,0,0.971C44.539,57.144,43.979,56.844,43.811,56.92z"/>
			<path d="M65.164,45.789c-0.279-0.02-0.541,0-0.82,0.019c-0.131,0.019-0.279,0.075-0.41,0.037
				c-0.224,0.056-0.467-0.093-0.672-0.037c-0.093,0.019-1.175-0.056-1.175-0.019c-0.168-0.057-0.354,0-0.521-0.02
				c-0.149,0.056-0.149,0.354-0.094,0.504c0.057,0.167,0,0.466,0,0.651c0.019,0.225,0,0.467-0.02,0.69
				c-0.037,0.485,0.037,0.988,0.037,1.455c0,0.242,0.037,1.901-0.057,2.163c-0.019,0.038,0.074,0.876,0.037,1.007
				c-0.056,0.354,0.02,0.746,0.037,1.119c0,0.373,0,0.746,0,1.101c0,0.168,0.038,0.334,0.038,0.521c0,0.148,0,0.354,0.019,0.484
				c0.074,0.262-0.019,0.504,0.057,0.783c0.037,0.168,0.037,0.504-0.094,0.598c-0.111,0.074-0.467,0.037-0.596,0
				c-0.113-0.02-0.263,0.056-0.373,0.019c-0.039-0.13-0.058-0.205-0.039-0.354c0-0.373-0.019-0.67-0.037-1.062
				c-0.019-0.261,0.037-0.578-0.019-0.839c-0.036-0.148,0-0.43-0.019-0.559c-0.057-0.373-0.057-0.84-0.02-1.213
				c0.02-0.484,0.037-0.97,0.037-1.455c0-0.969-0.093-1.977,0-2.945c-0.093-0.41,0-0.876-0.037-1.305
				c-0.037-0.373,0.037-0.988-0.056-1.212c-0.095,0-0.336,0.037-0.41-0.02c-0.075-0.056-0.262-0.019-0.336-0.019
				c-0.037,0.019-0.336,0.037-0.354,0.037c-0.129-0.037-0.129,0-0.224-0.02c-0.073,0-0.224-0.075-0.298-0.038
				c-0.057,0.038-0.521,0-0.635-0.037c-0.225-0.019-0.372,0.02-0.559,0.037c-0.149,0.038-0.263-0.037-0.412-0.019
				c-0.242,0.038-0.465-0.093-0.688-0.057c-0.019-0.074,0.019-0.316,0.019-0.41c-0.056-0.167-0.037-0.299-0.037-0.467
				c-0.019-0.261,0.504-0.204,0.689-0.187c0.148,0,0.504,0.093,0.635,0.019c0.111-0.056,0.559-0.074,0.672-0.056
				c0.224,0.056,0.596-0.019,0.801-0.019c0.299,0,0.541-0.057,0.82-0.02c0.28,0.038,0.522,0.038,0.84-0.019
				c0.168-0.037,0.467,0.019,0.578-0.02c0.187-0.056,0.504-0.038,0.709-0.038c0.409,0.02,0.801,0.038,1.211,0.057
				c0.373,0.019,0.746,0.019,1.139,0.019c0.187,0,0.373,0.038,0.559,0.02c0.131,0,0.28-0.02,0.41-0.02
				c0.057-0.019,0.225,0,0.279-0.019c0-0.037,0.074,0.224,0.057,0.279c-0.037,0.094-0.074,0.746,0,0.746
				c0,0-0.148,0.075-0.188,0.057c-0.092,0.019-0.056,0-0.187,0.037C65.275,45.807,65.256,45.789,65.164,45.789z"/>
		</g>
		<g>
			<path d="M76.303,41.947c-0.019-0.802-0.019-1.604-0.056-2.404c-0.037-0.802,0.037-1.604,0.037-2.405
				c0-0.429,0.056-0.858,0.019-1.269c-0.019-0.335-0.037-0.708,0.02-1.044c0.019-0.205,0-0.392,0-0.577
				c-0.02-0.188,0.037-0.41-0.02-0.578c-0.037-0.149,0-0.335,0-0.485c0-0.205,0-0.392,0-0.597c0.02-0.057-0.037-0.317-0.019-0.354
				c0.019-0.148,0.056-0.316,0.056-0.484c0-0.094,0.057-0.393,0-0.467c-0.056-0.111-0.019-0.261,0.094-0.279
				c0.225-0.037,0.484-0.112,0.82-0.02c0.057,0.02,0.057-0.037,0.205-0.037c0.074,0,0.112,0.037,0.112,0.188
				c-0.019,0.316-0.112,0.819-0.058,1.156c0.02,0.168-0.019,0.521-0.019,0.689c0,0.13,0.019,0.335,0.019,0.466
				c-0.037,0.298-0.019,0.541-0.037,0.82c-0.019,0.448,0,0.914,0,1.343c0,0.298-0.092,0.541-0.056,0.839
				c0.037,0.393-0.094,0.803-0.056,1.193c0.056,0.41,0,0.858,0.02,1.268c0,0.728-0.02,1.474,0.018,2.237
				c0.02,0.429,0,0.876-0.018,1.324c0,0.167,0.018,0.597-0.188,0.521c-0.188-0.056-0.598,0.168-0.746,0.02
				C76.191,42.75,76.322,42.302,76.303,41.947z"/>
			<path d="M81.992,43.067c-0.037,0.093-0.168-0.111-0.188-0.131c-0.019-0.093,0.057-0.093-0.037-0.28
				c-0.074-0.13,0.02-0.354,0.02-0.503c0.02-0.242,0-0.429,0.02-0.671c0.019-0.261-0.037-0.521-0.037-0.783
				c0.019-0.261,0.074-0.503,0.074-0.765c0-0.354-0.037-0.671-0.02-1.025c0.02-0.224,0.02-0.466,0.02-0.689
				c0-0.112,0.036-0.653,0.036-0.746c0.019-0.652,0.056-1.025,0.037-1.529c-0.019-0.429-0.037-0.839,0.019-1.25
				c0.095-0.578,0.058-1.212,0.039-1.809c0-0.317,0.056-0.615,0.037-0.951c-0.02-0.168-0.02-0.224,0.019-0.373
				c0.019-0.168-0.074-0.354-0.019-0.541c0-0.074,0.019-0.112,0.036-0.205c0-0.037,0.093-0.148,0.132-0.056
				c0.073-0.038,0.392-0.057,0.559-0.02c0.111,0.02,0.279,0.02,0.373,0c0.094,0.112,0.094,0.242,0.187,0.354
				c0.243,0.28,0.429,0.671,0.634,0.97c0.43,0.634,0.821,1.287,1.27,1.92c0.393,0.541,0.708,1.101,1.138,1.604
				c0.205,0.261,0.466,0.541,0.671,0.802c0.057,0.093,0.336,0.392,0.43,0.466c0.148,0.13,0.205,0.298,0.373,0.503
				c0.074,0.093,0.242,0.188,0.278,0.298c0.019,0.057,0.149,0.225,0.205,0.262c0.112,0.111,0.243,0.261,0.336,0.429
				c0.112,0.056,0.242,0.28,0.317,0.392c0.074,0.075,0.205,0.262,0.261,0.354c0.074,0.112,0.205,0.205,0.261,0.354
				c0.057,0.131,0.225,0.205,0.317,0.317c0.073,0.093,0.168,0.224,0.187,0.261c0.02,0.112,0.188,0.298,0.262,0.393
				c0.131,0.13,0.242,0.279,0.336,0.429c0.056,0.075,0.168,0.28,0.261,0.317c0.112-0.112,0-0.279,0.019-0.43
				c0.02-0.075-0.074-0.615-0.019-0.708c0.037-0.056-0.019-0.279-0.019-0.354c0-0.13,0-0.262,0-0.393c0-0.241,0-0.466-0.037-0.708
				c-0.057-0.278,0.056-0.578,0-0.856c-0.037-0.243-0.074-0.598-0.057-0.802c0.02-0.112,0.02-0.561,0-0.653
				c-0.019-0.242,0-0.466,0-0.708c0.02-0.783,0-1.585,0.02-2.368c0.02-0.205-0.037-0.429-0.02-0.615
				c0.02-0.261,0.037-0.541,0.037-0.783c0-0.187,0-0.372,0-0.559c-0.019-0.056,0.074-0.336,0.111-0.392
				c0.038-0.075-0.074-0.188,0.094-0.188c0.131,0,0.857-0.075,0.82,0.298c-0.037,0.074,0.02,1.511-0.037,1.529
				c-0.037,0.112,0,0.746-0.02,0.858c-0.094,0.373,0,0.708-0.019,1.082c0,0.409-0.075,0.671-0.058,1.192
				c0.02,0.298-0.055,0.615-0.036,0.933c0.019,0.204,0,0.373,0,0.876c0,0.13,0,0.503,0,0.614c-0.019,0.354,0.094,0.708,0.036,1.044
				c-0.073,0.373,0.02,0.69,0.037,1.082c0,0.299-0.056,0.598,0.021,0.896c0.074,0.336,0,0.783,0.019,1.138
				c0.02,0.149,0.02,0.28,0.02,0.41c0,0.093-0.057,0.187-0.02,0.261c0.037,0.038-0.057,0.149-0.074,0.168
				c-0.074,0.038-0.131-0.019-0.225,0.02c-0.093,0.038-0.484,0.038-0.541-0.057c0-0.019-0.13-0.187-0.224-0.298
				c-0.056-0.075-0.41-0.597-0.466-0.689c-0.112-0.149-0.262-0.336-0.336-0.485c-0.131-0.261-0.316-0.429-0.54-0.653
				c-0.112-0.148-0.187-0.298-0.317-0.446c-0.131-0.168-0.541-0.561-0.634-0.766c-0.168-0.373-0.597-0.671-0.839-1.024
				c-0.112-0.149-0.243-0.298-0.354-0.466c-0.132-0.205-0.3-0.354-0.41-0.541c-0.112-0.205-0.393-0.561-0.578-0.746
				c-0.112-0.112-0.578-0.84-0.598-0.84c0.02,0-0.429-0.652-0.541-0.727c-0.242-0.243-0.503-0.69-0.652-0.988
				c-0.055-0.111-0.392-0.429-0.428-0.56c-0.076-0.242-0.263-0.354-0.393-0.597c-0.094-0.188-0.243-0.393-0.373-0.578
				c-0.075-0.094-0.316-0.298-0.336-0.43c-0.057,0.02-0.057,0.317-0.057,0.393c0,0.224,0,0.484,0,0.764
				c0.037,0.597-0.056,1.25-0.094,1.883c-0.093,0.971-0.019,1.939-0.056,2.929c-0.019,0.541,0.073,1.118,0,1.659
				c-0.019,0.074-0.019,0.373,0.019,0.447c0,0.261,0.057,0.522,0.02,0.783c-0.02,0.261,0.02,0.521-0.02,0.783
				c-0.019,0.316-0.056,0.651,0,0.97C82.719,43.291,82.16,42.992,81.992,43.067z"/>
		</g>
		<g>
			<path d="M40.271,71.592c-0.149-0.746-0.261-1.528-0.224-2.293v-0.578c0-0.094,0.056-0.41,0.019-0.467
				c-0.037-0.074,0.038-0.261,0.019-0.354c0.056-0.186,0.075-0.41,0.075-0.598c0-0.334,0.13-0.633,0.205-0.969
				c0.037-0.131,0.056-0.261,0.093-0.392c0.056-0.187,0.093-0.392,0.168-0.578c0.075-0.149,0.13-0.298,0.224-0.392
				c0.075-0.057,0.112-0.205,0.168-0.299c0.074-0.111,0.187-0.334,0.298-0.41c0.056-0.036,0.298-0.447,0.354-0.502
				c0.429-0.354,0.522-0.561,1.063-0.82c0.242-0.131,0.485-0.262,0.765-0.336c0.074-0.02,0.149-0.02,0.224-0.057
				c0.056-0.019,0.187,0,0.242-0.019c0.093-0.073,0.298-0.019,0.429-0.019c0,0,0.242-0.037,0.298-0.037c0.074,0,0.335,0,0.41,0
				c0.149,0,0.224-0.037,0.41,0c0.261,0.056,0.578,0.224,0.634,0.261c0.187,0.075,0.336,0.131,0.522,0.224
				c0.13,0.075,0.279,0.205,0.41,0.262c0.093,0.037,0.298,0.187,0.373,0.242c0.075,0.057,0.205,0.168,0.261,0.28
				c0.075,0.149,0.205,0.279,0.28,0.429c0.075,0.149,0.187,0.262,0.261,0.41c0.093,0.168,0.112,0.336,0.206,0.485
				c0,0.075-0.056,0.093-0.038,0.168c0,0.056,0.038,0.019,0.038,0.073c0.019,0.188-0.149,0.15-0.261,0.225
				c-0.075,0.057-0.392,0.299-0.503,0.167c0-0.224,0.019-0.634-0.168-0.819c-0.13-0.112-0.093-0.373-0.335-0.43
				c0-0.037-0.224-0.188-0.243-0.205c-0.074-0.037-0.578-0.298-0.578-0.316c-0.112,0-0.167-0.094-0.242-0.149
				c-0.075-0.037-0.149-0.056-0.224-0.112c-0.075-0.056-0.336-0.242-0.41-0.187c-0.038,0.019-0.429-0.075-0.503-0.093
				c-0.187,0-0.336-0.02-0.522-0.02c-0.261-0.02-0.839,0.131-1.082,0.242c-0.317,0.148-0.503,0.393-0.764,0.561
				c-0.093,0.056-0.802,0.746-0.783,0.857c-0.224,0.298-0.41,0.727-0.485,1.025c-0.056,0.205-0.056,0.447-0.13,0.634
				c-0.075,0.168-0.038,0.373-0.093,0.56c-0.149,0.41-0.168,0.896-0.187,1.324c-0.019,0.28-0.037,0.561-0.019,0.839
				c0,0.074,0.037,0.429,0.056,0.522c0.038,0.224,0.093,0.429,0.149,0.652c0.037,0.168,0.075,0.392,0.168,0.541
				c0.112,0.187,0.13,0.446,0.205,0.651c0.074,0.206,0.167,0.392,0.261,0.578c0.093,0.168,0.243,0.317,0.336,0.485
				c0.186,0.056,0.41,0.261,0.541,0.373c0.112,0.111,1.119,0.446,1.119,0.502c0.075-0.019,0.28,0.113,0.354,0.149
				c0.149,0.093,0.429,0.019,0.578,0.075c0.205,0.057,0.466,0.093,0.671,0.111c0.112,0.02,0.503-0.092,0.616-0.073
				c0.205,0.036,0.429-0.261,0.615-0.261c0.093,0,0.224-0.149,0.28-0.225c0.074,0,0.112,0,0.167-0.037
				c0.131-0.057,0.336-0.188,0.429-0.318c0.149-0.168,0.373-0.297,0.466-0.484c0.056-0.13,0.112-0.205,0.261-0.225
				c0.112-0.036,0.112,0.02,0.187,0.113c0.13,0.019,0.335,0.205,0.354,0.334c0.038,0.188-0.019,0.039-0.037,0.188v0.131
				c-0.112-0.057-0.112,0.205-0.13,0.242c-0.112,0.074-0.168,0.354-0.261,0.447c-0.075,0.094-0.149,0.149-0.242,0.225
				c-0.075,0.057-0.187,0.188-0.243,0.205c-0.112,0.037-0.28,0.168-0.41,0.242c-0.149,0.074-0.317,0.131-0.466,0.187
				c-0.037,0.056-0.205,0.149-0.261,0.149c0.019,0.037-0.503,0.13-0.597,0.166c-0.261,0.094-0.522-0.018-0.783-0.036
				c-0.187-0.019-0.522-0.037-0.69,0.036c-0.038,0-0.298-0.036-0.335-0.073c-0.075-0.038-0.187,0.037-0.243-0.038
				c-0.075,0-0.075,0-0.075,0.02c-0.019-0.02-0.037-0.02-0.093-0.057c-0.205-0.056-0.559-0.093-0.708-0.205
				c-0.056-0.037-0.205-0.111-0.28-0.13c-0.205-0.019-0.391-0.093-0.559-0.261c-0.093-0.094-0.373-0.168-0.429-0.243
				c-0.093-0.13-0.261-0.167-0.373-0.261c-0.112-0.112-0.187-0.188-0.298-0.28c-0.075-0.056-0.243-0.187-0.28-0.298
				c-0.056,0-0.261-0.354-0.28-0.41C40.496,72.451,40.366,72.004,40.271,71.592z"/>
			<path d="M52.338,73.756c-0.019-0.803-0.019-1.604-0.056-2.406c-0.037-0.801,0.037-1.604,0.037-2.404
				c0-0.43,0.056-0.857,0.019-1.268c-0.019-0.336-0.037-0.709,0.019-1.045c0.019-0.205,0-0.392,0-0.578
				c-0.019-0.187,0.037-0.409-0.019-0.577c-0.037-0.149,0-0.335,0-0.485c0-0.205,0-0.393,0-0.597
				c0.019-0.056-0.037-0.317-0.019-0.354c0.019-0.148,0.056-0.316,0.056-0.484c0-0.094,0.056-0.393,0-0.467
				c-0.056-0.111-0.019-0.26,0.093-0.279c0.224-0.037,0.485-0.112,0.82-0.02c0.056,0.02,0.056-0.037,0.205-0.037
				c0.075,0,0.112,0.037,0.112,0.188c-0.019,0.316-0.112,0.82-0.056,1.156c0.019,0.168-0.019,0.521-0.019,0.689
				c0,0.131,0.019,0.336,0.019,0.467c-0.038,0.297-0.019,0.541-0.038,0.819c-0.019,0.448,0,0.914,0,1.343
				c0,0.299-0.093,0.541-0.056,0.84c0.037,0.392-0.093,0.801-0.056,1.192c0.056,0.41,0,0.858,0.019,1.269
				c0,0.727-0.019,1.473,0.019,2.236c0.019,0.43,0,0.877-0.019,1.324c0,0.167,0.019,0.598-0.186,0.521
				c-0.187-0.056-0.597,0.168-0.746,0.02C52.228,74.557,52.357,74.111,52.338,73.756z"/>
			<path d="M65.206,63.743c-0.28-0.02-0.541,0-0.819,0.02c-0.132,0.019-0.281,0.074-0.41,0.037
				c-0.226,0.056-0.467-0.094-0.672-0.037c-0.094,0.019-1.176-0.057-1.176-0.02c-0.167-0.056-0.354,0-0.521-0.02
				c-0.148,0.057-0.148,0.354-0.094,0.505c0.057,0.167,0,0.466,0,0.651c0.02,0.225,0,0.467-0.019,0.69
				c-0.037,0.485,0.037,0.987,0.037,1.455c0,0.241,0.038,1.901-0.056,2.163c-0.02,0.037,0.073,0.876,0.037,1.007
				c-0.057,0.354,0.019,0.746,0.036,1.119c0,0.373,0,0.746,0,1.101c0,0.168,0.038,0.334,0.038,0.521c0,0.148,0,0.354,0.02,0.484
				c0.074,0.262-0.02,0.504,0.056,0.783c0.037,0.168,0.037,0.504-0.093,0.598c-0.112,0.074-0.467,0.037-0.598,0
				c-0.111-0.02-0.262,0.056-0.373,0.019c-0.037-0.13-0.057-0.205-0.037-0.354c0-0.373-0.02-0.67-0.037-1.062
				c-0.02-0.261,0.037-0.578-0.02-0.839c-0.037-0.148,0-0.43-0.02-0.559c-0.055-0.373-0.055-0.84-0.018-1.213
				c0.018-0.484,0.036-0.97,0.036-1.455c0-0.97-0.093-1.977,0-2.945c-0.093-0.41,0-0.877-0.036-1.305
				c-0.037-0.373,0.036-0.988-0.057-1.213c-0.094,0-0.336,0.037-0.41-0.019s-0.262-0.019-0.336-0.019
				c-0.037,0.019-0.336,0.037-0.354,0.037c-0.131-0.037-0.131,0-0.225-0.02c-0.074,0-0.224-0.075-0.298-0.038
				c-0.058,0.038-0.522,0-0.635-0.037c-0.224-0.019-0.373,0.019-0.56,0.037c-0.148,0.038-0.262-0.037-0.41-0.019
				c-0.242,0.037-0.467-0.094-0.689-0.057c-0.02-0.074,0.02-0.316,0.02-0.41c-0.057-0.168-0.037-0.299-0.037-0.467
				c-0.02-0.261,0.502-0.205,0.688-0.188c0.149,0,0.504,0.094,0.636,0.02c0.11-0.056,0.559-0.074,0.67-0.056
				c0.225,0.056,0.598-0.019,0.803-0.019c0.299,0,0.541-0.057,0.82-0.02c0.279,0.038,0.521,0.038,0.838-0.02
				c0.168-0.037,0.467,0.02,0.578-0.019c0.188-0.056,0.504-0.038,0.709-0.038c0.41,0.02,0.803,0.038,1.213,0.057
				c0.373,0.019,0.746,0.019,1.137,0.019c0.188,0,0.373,0.038,0.56,0.019c0.132,0,0.28-0.019,0.411-0.019
				c0.057-0.019,0.225,0,0.279-0.019c0-0.037,0.074,0.223,0.056,0.279c-0.037,0.094-0.073,0.746,0,0.746
				c0,0-0.149,0.075-0.187,0.057c-0.094,0.019-0.057,0-0.188,0.037C65.316,63.762,65.298,63.743,65.206,63.743z"/>
			<path d="M77.049,62.569c0,0.075,0.074,0.225,0,0.262c-0.279,0.131-0.652,0.727-0.728,0.895c-0.037,0.093-0.261,0.392-0.279,0.447
				c-0.058,0.112-0.075,0.131-0.131,0.188c-0.205,0.279-0.336,0.578-0.504,0.857c-0.261,0.465-0.56,0.97-0.876,1.416
				c-0.149,0.225-0.373,0.522-0.43,0.765c-0.074,0.224-0.336,0.466-0.446,0.653c-0.149,0.242-0.226,0.148-0.411,0.447
				c-0.057,0.092-0.074,0.111-0.167,0.223c-0.112,0.149-0.095,0.205-0.28,0.41c-0.02,0.02,0,0.336,0,0.373
				c0,0.094-0.02,0.187,0,0.279c0,0.075-0.056,0.243-0.037,0.354c0.02,0.111,0,0.242,0.02,0.373
				c0.074,0.783-0.057,1.623-0.037,2.442c0.02,0.354-0.02,0.671-0.037,1.026c0,0.261,0,0.578,0,0.802
				c0,0.13-0.168,0.167-0.242,0.187c-0.02,0-0.148,0.02-0.148,0.037c-0.131,0.037-0.131-0.056-0.262-0.056
				c-0.057,0-0.225-0.056-0.242,0c-0.02,0-0.111-0.019-0.131-0.019c-0.131,0-0.094-0.131-0.074-0.205
				c0.037-0.168,0.037-0.317,0-0.504c-0.074-0.391-0.037-0.857-0.037-1.268c0-0.783-0.074-1.547-0.037-2.349
				c0.019-0.336-0.075-0.69-0.075-1.007c0-0.149,0.021-0.411-0.093-0.504c-0.074-0.074-0.131-0.187-0.188-0.262
				c-0.111-0.148-0.131-0.279-0.224-0.429c-0.074-0.131-0.168-0.261-0.261-0.373c-0.168-0.224-0.225-0.392-0.393-0.653
				c-0.373-0.578-0.652-1.1-1.025-1.66c-0.336-0.541-0.803-1.08-1.082-1.658c-0.073-0.149-0.223-0.28-0.297-0.393
				c-0.149-0.242-0.485-0.56-0.504-0.839c0-0.056-0.057-0.093-0.037-0.149c0.093-0.019,0.224-0.092,0.315-0.019
				c0.226-0.075,0.431,0.037,0.636,0.074c0.205,0.019,0.223-0.112,0.409,0.038c-0.038,0.148,0.111,0.316,0.187,0.429
				c0.242,0.373,0.467,0.783,0.765,1.138c0.112,0.131,0.168,0.262,0.299,0.56c0.019,0.056,0.205,0.243,0.242,0.298
				c0.095,0.111,0.187,0.373,0.263,0.484c0.092,0.131,0.147,0.281,0.241,0.41c0.147,0.205,0.279,0.43,0.429,0.635
				c0.094,0.13,0.111,0.316,0.316,0.466c0.075,0.056,0.038,0.149,0.148,0.224c-0.037,0.02,0.188,0.317,0.225,0.336
				c0.02,0.074,0.225,0.484,0.279,0.484c0.148-0.094,0.188-0.243,0.316-0.373c0.038-0.02,0.354-0.41,0.317-0.43
				c0.168-0.168,0.317-0.372,0.446-0.541c0.113-0.148,0.3-0.596,0.468-0.689c0.056-0.037,0.466-0.652,0.521-0.727
				c0.112-0.149,0.225-0.299,0.317-0.447c0.11-0.188,0.205-0.393,0.315-0.561c0.244-0.297,0.373-0.596,0.522-0.914
				c0.074-0.168,0.336-0.578,0.429-0.801c0.037-0.094,0.149-0.188,0.168-0.205c0.094-0.112,0.205-0.02,0.447-0.039
				c0.131,0,0.354-0.019,0.504-0.037C76.863,62.438,77.068,62.586,77.049,62.569z"/>
		</g>
		<rect x="68.266" y="17.511" width="33.32" height="3.428"/>
		<rect x="68.266" y="50.42" width="33.32" height="3.428"/>
		<rect x="68.266" y="79.215" width="33.32" height="3.428"/>
		<rect x="39.061" y="17.511" width="26.738" height="3.428"/>
		<rect x="39.061" y="34.514" width="26.738" height="3.428"/>
		<rect x="39.061" y="79.215" width="26.738" height="3.428"/>
		<rect x="9.236" y="17.511" width="7.815" height="3.428"/>
		<rect x="68.266" y="11.341" width="33.32" height="3.428"/>
		<rect x="39.061" y="11.341" width="26.738" height="3.428"/>
		<rect x="9.236" y="11.341" width="7.815" height="3.428"/>
		<rect x="9.236" y="60.704" width="7.815" height="3.428"/>
		<rect x="9.236" y="79.215" width="7.815" height="3.428"/>
	</g>
</g>
</svg>
